<?xml version="1.0" standalone="no"?>
<!DOCTYPE svg PUBLIC "-//W3C//DTD SVG 20010904//EN"
 "http://www.w3.org/TR/2001/REC-SVG-20010904/DTD/svg10.dtd">
<svg version="1.0" xmlns="http://www.w3.org/2000/svg"
 width="441.000000pt" height="566.000000pt" viewBox="0 0 441.000000 566.000000"
 preserveAspectRatio="xMidYMid meet">
<metadata>
Created by potrace 1.16, written by Peter Selinger 2001-2019
</metadata>
<g transform="translate(0.000000,566.000000) scale(0.100000,-0.100000)"
fill="#000000" stroke="none">
<path d="M0 3538 c0 -1688 3 -2119 12 -2110 9 9 15 80 20 235 7 216 21 320 51
373 7 12 60 66 118 120 58 55 120 115 137 135 39 45 202 134 364 198 70 28
130 51 134 51 3 0 45 26 93 58 48 32 147 84 225 117 76 32 153 69 172 81 19
13 47 30 63 38 20 11 34 31 50 75 12 33 30 70 40 82 19 23 19 23 25 -66 4 -50
11 -109 17 -132 14 -63 94 -254 103 -246 4 4 4 0 0 -10 -11 -29 14 -19 30 12
14 26 14 30 1 41 -11 9 -12 16 -5 26 8 9 6 15 -7 23 -10 6 -13 11 -5 11 9 0
10 5 2 19 -5 11 -10 27 -10 36 0 8 -12 34 -27 58 -15 24 -19 36 -10 28 10 -7
18 -11 18 -7 1 3 2 12 3 19 1 6 8 11 16 9 11 -3 11 0 0 12 -7 9 -10 17 -6 17
3 1 11 3 16 4 6 1 14 3 20 4 5 0 7 8 4 16 -5 12 -1 13 27 3 19 -6 39 -19 46
-27 7 -9 13 -12 13 -8 0 5 21 -7 48 -26 73 -54 145 -85 127 -57 -4 6 -10 8
-14 6 -4 -3 -8 1 -8 9 0 9 5 11 16 6 9 -5 39 -11 66 -14 45 -5 47 -4 18 5 -46
15 -42 32 5 25 22 -4 32 -3 23 2 -22 14 22 23 53 11 21 -8 25 -7 20 3 -6 9 -5
9 7 0 9 -8 20 -9 29 -3 13 9 13 10 0 11 -8 0 2 5 23 10 21 5 45 5 53 1 22 -12
80 -2 63 10 -10 7 -6 8 13 5 15 -2 26 0 25 6 -1 5 6 11 15 12 16 3 16 1 1 -21
-9 -14 -13 -27 -10 -30 3 -3 8 4 12 16 5 16 13 20 27 17 12 -3 21 0 25 10 5
12 7 12 15 1 6 -9 8 -6 6 12 -2 19 1 24 14 22 11 -2 26 12 42 36 13 21 33 47
43 57 10 10 18 26 18 34 1 9 6 15 13 14 6 -2 17 7 23 20 6 12 20 32 31 44 12
12 17 27 13 34 -5 7 -4 10 3 5 6 -3 15 2 21 11 6 11 11 13 11 5 0 -7 5 -10 10
-7 6 3 10 -3 10 -14 0 -12 4 -21 8 -21 5 0 9 -19 8 -42 -1 -60 15 -178 23
-178 4 0 7 -10 5 -22 -1 -13 -3 -23 -3 -23 -1 0 -4 -29 -6 -65 -3 -36 -12 -92
-20 -125 -9 -33 -28 -113 -44 -178 -20 -83 -35 -125 -52 -144 -20 -22 -16 -20
19 7 23 18 42 39 42 47 0 21 69 299 102 413 29 98 30 108 19 165 -18 90 -31
125 -47 125 -8 0 -14 10 -14 25 0 52 43 7 126 -132 31 -51 127 -173 136 -173
11 0 80 -31 283 -130 88 -43 212 -94 275 -115 128 -41 207 -73 355 -145 141
-69 187 -100 223 -155 43 -64 92 -195 104 -275 5 -36 22 -99 37 -140 16 -41
31 -102 35 -135 6 -51 30 -179 88 -480 6 -33 20 -78 30 -100 17 -39 18 36 18
2248 l0 2287 -2205 0 -2205 0 0 -2122z m2134 1360 c-6 -10 -5 -10 7 -1 18 15
139 15 139 1 0 -6 11 -7 24 -4 18 4 28 1 35 -11 7 -13 13 -14 23 -6 9 7 20 6
40 -7 16 -9 25 -20 22 -23 -4 -4 4 -11 17 -16 29 -12 87 -71 71 -71 -7 0 -12
5 -12 12 0 9 -3 8 -12 -1 -10 -11 -10 -14 -1 -18 9 -3 10 -10 3 -24 -8 -14 -7
-19 2 -19 8 0 6 -5 -4 -11 -10 -5 -18 -15 -18 -20 0 -6 5 -7 12 -3 7 5 9 2 5
-9 -3 -8 0 -18 8 -20 15 -6 25 1 25 17 0 6 -5 4 -10 -4 -6 -9 -10 -10 -10 -3
0 6 4 14 10 18 13 8 37 -45 35 -80 -1 -16 3 -33 9 -37 7 -5 6 -8 -3 -8 -12 0
-12 -3 1 -17 8 -10 18 -33 21 -51 6 -30 5 -32 -13 -22 -20 11 -36 -2 -26 -19
3 -5 -6 -12 -20 -15 -20 -5 -25 -12 -21 -26 5 -18 1 -19 -41 -14 -26 3 -48 1
-52 -5 -4 -7 -16 -7 -37 1 -24 9 -37 9 -62 -2 -21 -8 -28 -16 -21 -20 9 -6 9
-9 1 -15 -15 -9 -43 14 -37 31 3 7 -1 15 -9 18 -8 3 -16 -3 -20 -13 -6 -19
-45 -24 -57 -6 -12 17 -22 -5 -23 -51 0 -24 -1 -44 -3 -44 -1 0 -7 10 -12 23
-9 20 -9 19 -6 -8 9 -68 20 -75 78 -51 47 20 214 48 246 42 106 -21 160 -41
182 -67 3 -3 15 -11 28 -18 12 -7 20 -16 17 -22 -4 -5 -2 -9 4 -9 5 0 13 -20
17 -45 8 -54 22 -69 16 -18 -3 25 -1 34 7 29 6 -4 11 -31 11 -61 0 -29 5 -55
11 -57 5 -2 10 -22 11 -46 0 -47 5 -52 18 -19 6 15 7 7 3 -28 -3 -27 -11 -53
-16 -57 -7 -4 -7 -11 1 -20 6 -8 12 -62 13 -133 2 -159 1 -177 -11 -170 -6 4
-10 -5 -10 -19 0 -15 -5 -25 -12 -23 -7 1 -14 -8 -16 -19 -2 -12 -12 -30 -23
-40 -10 -9 -19 -25 -19 -36 0 -15 -5 -17 -25 -12 -21 5 -24 3 -19 -11 5 -13 9
-14 15 -3 7 10 9 9 9 -4 0 -20 -30 -25 -30 -5 -1 6 -8 0 -16 -15 -8 -16 -17
-28 -20 -28 -2 0 0 9 6 20 10 19 10 20 -10 8 -12 -8 -19 -20 -16 -30 5 -21
-14 -24 -32 -6 -9 9 -12 6 -12 -14 0 -15 -5 -30 -10 -33 -6 -4 -7 -11 -4 -17
4 -7 2 -8 -4 -4 -7 4 -12 14 -12 22 0 8 5 12 10 9 6 -3 10 3 10 15 0 12 -4 18
-10 15 -6 -4 -9 -3 -8 2 4 12 -21 53 -33 53 -6 0 -3 -10 5 -22 21 -29 22 -54
2 -36 -8 7 -12 17 -9 21 3 5 -3 18 -14 29 -10 12 -12 18 -4 13 10 -6 12 0 7
26 -3 19 -3 28 0 20 5 -9 11 -3 20 19 15 36 19 94 5 86 -4 -3 -7 5 -6 19 2 14
-3 27 -13 31 -27 12 -52 12 -53 0 0 -6 -4 -2 -8 9 -6 15 -18 20 -47 21 -21 1
-51 5 -66 8 -17 4 -28 2 -28 -4 0 -6 5 -8 12 -4 7 4 8 3 4 -4 -4 -7 -14 -12
-22 -12 -8 0 -12 -4 -9 -10 10 -16 -1 -11 -16 7 -12 14 -12 16 0 8 9 -5 12 -4
8 2 -8 12 -67 4 -67 -9 0 -5 -6 -6 -12 -2 -10 6 -10 5 -1 -8 15 -18 7 -29 -15
-21 -11 5 -13 3 -7 -7 6 -10 3 -12 -11 -8 -21 5 -44 -12 -45 -34 0 -7 -4 -4
-9 7 -6 15 -9 16 -9 4 -1 -9 2 -18 5 -22 10 -10 34 4 34 20 0 10 6 12 20 8 11
-3 20 -2 20 3 0 23 31 21 42 -3 8 -18 14 -22 19 -13 5 8 12 9 21 2 7 -6 25 -9
41 -8 39 4 35 -23 -5 -29 -51 -8 -149 -38 -108 -32 128 17 143 18 136 7 -4 -7
-1 -12 8 -12 8 0 18 5 21 10 9 14 57 12 75 -3 22 -18 57 -62 43 -53 -9 5 -11
2 -7 -8 3 -9 2 -16 -4 -16 -5 0 -13 -7 -16 -16 -6 -15 -4 -15 11 -3 14 12 16
12 8 0 -6 -11 -4 -13 8 -8 11 4 14 2 10 -9 -4 -11 -9 -12 -19 -3 -8 6 -14 8
-14 4 0 -4 -8 -1 -17 6 -14 12 -16 12 -8 0 6 -11 4 -13 -10 -8 -14 6 -16 3
-12 -13 4 -15 -3 -27 -24 -42 -33 -25 -36 -35 -11 -41 13 -4 11 -5 -5 -6 -14
-1 -23 5 -23 14 0 19 -23 15 -32 -5 -11 -25 -9 -42 5 -34 9 6 9 4 -1 -8 -7 -8
-9 -24 -6 -34 4 -11 4 -16 -1 -12 -4 4 -15 2 -23 -5 -13 -10 -14 -9 -7 3 12
19 14 51 3 44 -5 -3 -7 -12 -6 -19 2 -8 -6 -21 -17 -29 -16 -13 -17 -15 -2
-10 9 3 17 1 17 -5 0 -6 -5 -11 -11 -11 -5 0 -8 -3 -5 -8 2 -4 -2 -16 -10 -27
-8 -10 -14 -14 -14 -9 0 6 5 15 11 21 8 8 8 13 0 17 -6 4 -11 2 -11 -4 0 -6
-4 -9 -9 -5 -5 3 -12 -3 -14 -12 -3 -11 -5 -5 -6 12 -1 23 -3 27 -11 15 -7
-11 -10 -11 -10 -2 0 7 -4 10 -10 7 -5 -3 -10 -1 -10 5 0 6 -5 8 -12 4 -8 -5
-9 0 -6 14 4 14 2 20 -4 16 -5 -4 -8 -18 -5 -33 9 -43 -5 -56 -34 -31 -13 12
-18 19 -11 15 7 -4 12 0 12 10 0 9 -4 13 -10 10 -5 -3 -10 2 -10 12 -1 12 -5
8 -15 -12 -12 -27 -13 -28 -14 -7 -1 13 -5 20 -11 17 -6 -4 -8 -10 -6 -14 3
-4 -1 -8 -9 -8 -13 0 -12 3 1 18 9 10 20 16 25 14 4 -3 7 3 6 14 -1 15 -4 17
-14 9 -11 -8 -12 -7 -6 8 9 25 22 33 45 29 13 -3 18 2 18 18 0 16 6 22 25 23
30 2 61 29 42 38 -6 3 0 5 15 3 19 -3 25 0 21 9 -3 8 5 18 18 23 20 7 16 8
-23 9 -59 2 -189 -23 -197 -37 -10 -15 -78 -2 -78 15 0 8 9 14 19 14 22 0 23
10 3 36 -8 10 -15 24 -15 31 0 17 59 34 96 27 17 -3 35 -1 38 4 6 10 -95 30
-117 24 -5 -2 -6 2 -2 8 3 6 11 8 16 5 5 -4 9 -2 9 3 0 5 12 12 28 15 15 3 36
8 47 10 11 3 24 6 28 6 4 1 2 7 -5 15 -9 10 -15 11 -20 2 -4 -6 -8 5 -8 24 0
28 -3 32 -11 20 -9 -12 -10 -12 -5 3 3 10 6 25 6 33 0 8 11 19 25 24 31 12 31
15 0 18 -14 1 -35 8 -48 16 -24 15 -93 3 -82 -14 12 -19 -26 -22 -45 -5 -34
31 -16 153 18 131 7 -4 12 -16 12 -27 0 -27 17 -24 24 5 3 13 9 32 13 42 4 11
2 15 -4 11 -6 -4 -5 16 4 51 8 31 16 67 18 79 2 11 6 29 9 40 3 10 8 46 11 78
5 71 -18 129 -62 158 -15 10 -20 16 -11 13 10 -3 20 -1 23 4 6 9 -8 14 -27 11
-5 0 -8 10 -8 24 0 23 -2 24 -21 15 -19 -10 -20 -10 -10 9 16 28 14 33 -9 26
-16 -5 -20 -2 -20 16 l0 22 -25 -23 -26 -24 -6 22 c-3 13 -13 22 -24 22 -12 0
-16 -5 -13 -15 7 -18 -7 -20 -24 -3 -9 9 -17 9 -34 0 -35 -19 -71 -23 -65 -9
3 9 -4 12 -24 11 -53 -4 -71 6 -64 34 3 14 15 36 25 50 11 13 17 28 14 33 -3
5 0 8 7 7 11 -3 14 10 10 57 0 8 -16 29 -33 47 -18 17 -27 28 -19 23 10 -6 11
-2 5 16 -13 40 -7 116 11 147 16 26 21 29 46 22 19 -6 29 -5 29 2 0 6 9 8 20
5 11 -3 18 0 17 7 -1 6 12 13 28 14 17 2 33 9 37 16 4 7 30 14 59 15 28 1 56
4 62 8 6 4 7 1 3 -6 -6 -9 3 -11 36 -6 23 4 48 10 53 14 11 8 79 28 130 37 17
3 35 10 41 15 5 4 21 6 35 3 13 -2 18 -1 10 2 -11 5 -11 8 0 15 20 13 31 11
23 -3z m-494 -718 c-18 -6 -8 -8 35 -7 66 1 150 -29 161 -58 10 -26 -2 -28
-51 -6 -25 11 -52 20 -58 18 -7 -1 -11 4 -9 12 3 12 0 12 -11 2 -9 -6 -26 -9
-39 -6 -13 3 -43 2 -66 -3 -33 -8 -42 -7 -42 3 0 7 6 16 13 18 7 3 4 6 -7 6
-10 1 -45 -13 -77 -31 -32 -18 -61 -30 -64 -27 -19 19 34 58 105 78 45 12 147
13 110 1z m1230 -54 c25 -39 33 -120 31 -306 -3 -157 -6 -190 -22 -221 -19
-37 -35 -49 -70 -49 -19 0 -20 5 -14 113 4 61 8 117 10 124 4 13 -32 229 -40
243 -3 4 -6 27 -7 51 -1 30 4 45 17 55 27 20 80 15 95 -10z m-1128 -18 c32 -9
38 -15 34 -31 -4 -17 -1 -19 28 -14 26 4 32 2 33 -13 1 -10 -5 -24 -13 -31 -8
-6 -14 -17 -14 -25 0 -7 -7 -20 -16 -28 -17 -18 -11 -21 15 -7 16 9 18 4 14
-71 -2 -50 -11 -103 -23 -135 -22 -60 -25 -104 -9 -135 10 -18 17 -19 59 -14
34 5 50 3 59 -7 15 -19 3 -29 -20 -16 -13 6 -19 6 -19 -1 0 -5 -15 -10 -34
-10 -19 0 -38 -5 -41 -10 -4 -6 -10 -8 -15 -5 -5 3 -15 -3 -22 -15 -14 -21
-33 -28 -23 -7 4 6 -5 -1 -19 -16 -15 -16 -26 -22 -27 -15 0 7 -6 0 -14 -17
-11 -25 -13 -26 -17 -10 -3 17 -6 15 -21 -12 -21 -40 -22 -89 -2 -97 8 -3 15
-13 15 -22 0 -9 6 -14 13 -11 8 3 12 -5 11 -26 -1 -24 -6 -31 -24 -34 -23 -3
-23 -3 -5 17 10 11 13 20 7 20 -7 0 -12 7 -12 15 0 9 -6 12 -15 9 -10 -4 -14
-13 -9 -28 5 -18 3 -18 -18 6 -20 22 -27 25 -38 15 -10 -10 -12 -8 -7 10 5 23
-11 28 -26 8 -5 -6 -12 -4 -20 6 -12 16 -18 19 -35 19 -5 0 -9 7 -9 15 0 11 4
12 11 5 19 -19 25 -10 14 22 -10 28 -12 30 -19 12 -6 -13 -8 -3 -7 30 2 33 -3
52 -13 60 -8 6 -21 26 -28 43 -8 20 -18 30 -25 26 -6 -4 -6 0 2 9 13 16 14 80
1 72 -7 -4 -19 30 -19 54 0 6 7 12 15 12 11 0 12 5 5 24 -6 18 -4 33 11 60 10
20 19 42 19 50 0 8 8 28 17 44 14 24 27 32 60 37 23 3 46 11 49 17 4 7 2 8 -4
4 -7 -4 -12 -1 -12 9 0 9 4 14 9 11 5 -3 12 2 15 11 6 15 8 15 16 3 8 -13 10
-12 10 2 0 12 -10 18 -37 20 -33 3 -38 6 -38 27 0 28 35 54 43 32 9 -25 42
-51 65 -51 30 0 59 31 61 64 1 30 4 30 58 14z"/>
<path d="M2219 4232 c-49 -18 -79 -38 -79 -54 0 -5 12 0 27 12 30 23 45 11 21
-17 -12 -15 -11 -15 12 -3 25 13 25 13 -2 -17 -33 -34 -35 -43 -10 -43 14 0
15 2 2 10 -12 7 -11 10 5 16 11 4 38 21 60 37 l40 29 14 -36 c27 -71 120 -62
121 12 0 26 2 27 41 6 28 -14 30 -19 25 -49 l-7 -34 45 2 c24 1 42 4 40 6 -2
2 4 10 14 17 16 12 16 14 -3 29 -11 9 -14 14 -7 10 6 -3 12 -3 12 2 0 11 -57
49 -93 62 -40 16 -58 13 -22 -3 l30 -13 -34 2 c-23 2 -37 9 -42 21 -6 14 -8
15 -8 3 -1 -12 -12 -15 -48 -13 -60 2 -64 4 -33 14 20 6 14 8 -25 8 -27 0 -71
-7 -96 -16z"/>
</g>
</svg>
