<?xml version="1.0" standalone="no"?>
<!DOCTYPE svg PUBLIC "-//W3C//DTD SVG 20010904//EN"
 "http://www.w3.org/TR/2001/REC-SVG-20010904/DTD/svg10.dtd">
<svg version="1.0" xmlns="http://www.w3.org/2000/svg"
 width="3456.000000pt" height="2304.000000pt" viewBox="0 0 3456.000000 2304.000000"
 preserveAspectRatio="xMidYMid meet">
<metadata>
Created by potrace 1.16, written by Peter Selinger 2001-2019
</metadata>
<g transform="translate(0.000000,2304.000000) scale(0.100000,-0.100000)"
fill="#000000" stroke="none">
<path d="M18860 20300 c-14 -4 -59 -8 -100 -9 -55 -1 -85 -6 -113 -21 -29 -16
-55 -20 -120 -19 -50 0 -103 -6 -137 -16 -30 -10 -82 -21 -115 -25 -55 -8
-156 -41 -180 -59 -5 -5 -46 -16 -90 -26 -44 -10 -106 -32 -138 -49 -32 -17
-75 -40 -95 -50 -40 -21 -73 -53 -137 -131 -22 -27 -51 -59 -64 -70 -13 -11
-41 -35 -63 -54 -21 -19 -45 -49 -53 -67 -9 -22 -26 -38 -48 -47 -18 -8 -56
-31 -83 -52 -44 -34 -49 -42 -47 -74 1 -26 -6 -43 -23 -62 -27 -28 -32 -49
-21 -91 6 -21 2 -32 -17 -50 -32 -31 -42 -109 -21 -168 8 -23 15 -55 15 -71 0
-17 5 -29 13 -29 7 0 18 -9 25 -21 11 -18 11 -26 -3 -56 -15 -30 -15 -37 -2
-51 8 -9 17 -28 20 -42 3 -14 10 -43 16 -65 6 -22 11 -66 11 -97 0 -37 10 -86
30 -141 17 -47 30 -92 30 -101 0 -8 11 -25 24 -38 14 -13 61 -95 105 -182 44
-88 89 -169 99 -180 41 -45 107 -153 124 -201 25 -73 23 -103 -7 -115 -24 -9
-25 -13 -25 -88 0 -43 5 -104 10 -135 13 -67 53 -144 81 -152 11 -4 29 -25 41
-48 11 -23 27 -46 34 -52 16 -13 34 -79 34 -126 0 -20 9 -58 21 -84 17 -38 19
-58 14 -104 -6 -54 -5 -59 19 -75 15 -9 37 -38 51 -64 13 -26 46 -90 72 -142
53 -105 98 -173 136 -208 14 -13 38 -44 53 -68 16 -24 36 -44 45 -44 10 0 27
-12 39 -27 20 -26 21 -35 15 -122 -6 -82 -5 -100 13 -140 12 -25 23 -62 27
-81 4 -26 16 -42 44 -62 21 -15 46 -44 56 -65 10 -21 30 -56 45 -78 15 -22 41
-69 57 -105 33 -72 96 -165 131 -194 14 -11 21 -25 17 -34 -9 -24 24 -52 62
-52 41 0 143 -63 231 -142 32 -29 91 -75 130 -103 123 -86 196 -142 226 -174
17 -17 38 -31 47 -31 10 0 48 34 86 76 37 43 83 93 101 113 19 20 52 72 74
116 49 97 64 115 96 115 14 0 33 6 41 14 9 8 29 21 45 29 15 9 66 48 114 89
47 40 89 73 94 73 13 0 28 27 28 51 0 26 59 81 83 76 10 -2 17 3 17 13 0 18
23 45 38 45 5 0 14 10 20 23 19 39 24 76 37 265 4 46 19 136 35 199 17 63 35
163 41 222 11 92 10 113 -4 161 -20 70 -66 121 -153 174 -91 56 -93 60 -69
148 13 50 21 119 25 217 l5 145 50 25 c38 20 55 37 73 73 32 62 46 178 37 313
-4 61 -9 157 -10 215 -2 88 -7 114 -28 160 -14 30 -30 73 -36 95 -14 51 -26
65 -78 98 -23 14 -44 30 -47 35 -5 9 3 62 29 192 22 106 26 166 15 196 -6 16
-15 65 -20 109 -8 77 -25 140 -58 215 -9 19 -19 73 -23 120 -10 122 -25 217
-43 275 -17 55 -20 103 -7 123 4 7 4 32 1 55 -4 23 -13 76 -19 117 -7 41 -21
87 -32 102 -10 15 -19 31 -19 35 0 5 -20 32 -43 61 -51 61 -122 111 -203 142
-32 11 -75 36 -95 55 -27 24 -53 36 -96 45 -32 6 -69 15 -83 20 -14 5 -68 12
-120 16 -75 5 -104 11 -139 31 -34 20 -65 27 -145 33 -56 5 -113 11 -126 13
-14 3 -36 2 -50 -3z m-863 -2168 c10 -11 26 -22 37 -25 10 -4 16 -13 13 -21
-3 -7 -1 -18 4 -23 14 -14 -40 -69 -88 -88 -28 -11 -45 -26 -53 -46 -7 -16
-19 -29 -27 -29 -11 0 -13 -7 -9 -24 3 -14 2 -27 -2 -30 -5 -3 -7 -19 -4 -36
2 -17 0 -30 -6 -30 -13 0 -22 62 -17 110 9 82 18 131 26 136 5 3 9 18 9 35 0
16 9 38 20 49 11 11 20 17 20 14 0 -3 10 2 22 10 28 20 33 20 55 -2z m816
-367 c36 13 100 -176 101 -299 0 -85 6 -75 -79 -145 -55 -45 -150 -94 -184
-95 -33 -1 -36 2 -45 36 -10 41 5 104 35 142 9 11 24 43 33 70 9 27 25 61 36
76 10 14 22 39 25 56 10 44 60 174 63 164 2 -5 9 -7 15 -5z m-935 -17 c-1 -13
4 -40 11 -60 7 -21 10 -42 6 -47 -9 -16 74 -54 102 -47 26 7 79 -14 128 -49
36 -26 168 -93 193 -97 30 -5 51 -33 54 -71 2 -33 -3 -41 -37 -70 -22 -17 -47
-39 -55 -47 -27 -26 -70 -51 -79 -45 -5 3 -22 -11 -38 -30 -19 -24 -38 -36
-61 -39 -17 -2 -50 -15 -72 -30 -23 -15 -44 -24 -49 -22 -22 14 -54 137 -80
306 -11 74 -23 149 -26 165 -4 17 -10 67 -14 112 -6 75 -4 85 16 92 2 1 2 -9
1 -21z"/>
<path d="M20435 15793 c-11 -3 -38 -16 -60 -29 -37 -22 -43 -30 -68 -111 -28
-91 -33 -123 -18 -123 4 0 6 -10 4 -23 -4 -18 0 -23 16 -23 12 0 21 4 21 9 0
4 8 7 18 5 11 -2 18 4 20 20 2 12 10 22 18 22 9 0 12 -5 8 -11 -3 -6 5 -3 20
6 25 16 26 16 26 0 0 -10 -7 -23 -16 -30 -12 -8 -15 -20 -10 -38 6 -27 47 -48
54 -28 5 15 49 14 54 -1 11 -33 111 102 142 192 8 25 20 46 26 48 16 6 12 37
-10 65 -17 21 -33 27 -107 37 -49 6 -95 13 -103 15 -8 1 -24 0 -35 -2z"/>
<path d="M18255 15370 c-80 -7 -165 -46 -191 -86 -9 -14 -31 -31 -48 -38 -25
-10 -34 -22 -44 -62 -10 -37 -10 -50 -1 -53 22 -7 49 -41 49 -62 0 -20 38 -83
104 -174 17 -22 48 -65 70 -95 22 -30 56 -74 76 -97 90 -108 146 -181 210
-272 19 -28 69 -87 111 -131 42 -45 82 -93 90 -108 8 -15 28 -41 44 -57 31
-32 333 -408 420 -524 28 -37 95 -122 150 -190 128 -158 161 -200 182 -231 9
-14 35 -43 57 -65 48 -48 192 -213 256 -295 71 -89 181 -222 235 -284 6 -6 35
-40 65 -76 30 -36 68 -78 83 -95 16 -16 41 -47 54 -68 14 -20 44 -57 67 -80
22 -24 68 -75 102 -113 186 -210 227 -255 292 -318 40 -39 83 -86 96 -105 71
-109 123 -185 136 -204 32 -47 76 -89 106 -103 18 -9 51 -32 73 -53 38 -35 41
-42 41 -89 0 -47 2 -52 23 -52 30 -1 60 -28 82 -73 14 -29 23 -37 44 -37 22 0
33 -10 61 -57 19 -32 46 -68 62 -81 15 -13 40 -45 55 -70 14 -26 51 -87 81
-137 30 -49 60 -99 66 -110 27 -48 65 -101 80 -114 9 -7 30 -58 47 -112 17
-54 41 -119 54 -143 13 -24 31 -73 40 -108 9 -34 20 -72 25 -83 25 -63 40
-114 40 -136 0 -14 9 -35 20 -46 10 -12 22 -34 25 -50 3 -15 11 -45 17 -66 8
-28 8 -44 -1 -63 -10 -23 -9 -30 9 -49 11 -12 20 -28 20 -36 0 -8 4 -19 9 -24
5 -6 13 -43 17 -83 5 -59 4 -72 -7 -70 -9 2 -13 -5 -12 -22 2 -34 40 -171 53
-193 8 -14 7 -19 -7 -24 -38 -14 -43 -43 -9 -43 16 0 27 -7 31 -20 4 -11 11
-17 17 -14 7 4 7 0 0 -12 -5 -11 -8 -50 -5 -88 4 -61 2 -70 -16 -83 -12 -8
-21 -25 -21 -39 0 -24 -17 -46 -57 -74 -20 -14 -21 -19 -12 -75 6 -32 15 -65
21 -72 6 -7 7 -13 2 -13 -4 0 2 -9 14 -20 12 -12 22 -31 23 -43 2 -51 9 -111
13 -115 3 -2 -4 -28 -15 -57 -16 -44 -20 -79 -20 -197 -1 -78 2 -174 6 -212 4
-39 4 -67 -1 -63 -11 6 -35 -18 -26 -27 8 -9 12 -138 4 -151 -10 -16 -11 -35
-2 -35 10 0 7 -40 -5 -60 -4 -7 -9 -36 -10 -65 -1 -28 -5 -57 -11 -65 -5 -8
-10 -24 -11 -35 -4 -48 -31 -144 -46 -166 -10 -13 -17 -38 -17 -56 0 -18 -4
-33 -10 -33 -16 0 -12 -32 9 -74 20 -37 19 -50 -2 -94 -8 -17 -7 -30 5 -55 11
-23 12 -40 6 -62 -5 -16 -9 -67 -8 -113 0 -45 -4 -92 -11 -103 -14 -27 -105
-69 -149 -69 -20 0 -40 -4 -45 -9 -16 -15 -285 -59 -465 -76 -265 -26 -427
-34 -730 -40 -205 -4 -301 -10 -343 -21 -31 -8 -92 -17 -135 -21 -93 -7 -99
-2 -111 88 -8 58 -17 93 -67 263 -8 26 -14 58 -14 69 0 21 -18 96 -45 192 -8
28 -17 66 -20 85 -10 57 -38 131 -49 127 -17 -6 -38 -86 -46 -182 -5 -49 -18
-133 -29 -185 -12 -52 -21 -107 -21 -121 0 -15 -7 -46 -16 -70 -9 -24 -19 -76
-24 -116 -4 -40 -15 -84 -25 -99 -16 -25 -20 -26 -75 -21 -32 4 -69 11 -81 16
-13 5 -58 19 -99 31 -116 35 -342 111 -370 125 -14 7 -59 24 -100 38 -72 25
-114 36 -265 72 -38 10 -99 26 -135 37 -36 11 -99 28 -140 38 -42 10 -114 33
-160 50 -83 31 -213 79 -315 117 -102 37 -465 246 -535 309 -14 12 -35 27 -47
33 -21 11 -23 9 -23 -14 0 -18 9 -31 30 -43 38 -21 45 -40 24 -63 -13 -15 -20
-31 -23 -60 -1 -4 -28 -12 -62 -18 -33 -7 -62 -18 -65 -25 -4 -9 -15 -11 -37
-7 l-32 7 3 61 c4 58 2 62 -20 65 -22 3 -23 6 -24 103 -2 174 -32 336 -54 294
-15 -28 -25 -157 -25 -319 0 -153 -11 -255 -36 -337 -6 -18 -12 -72 -14 -120
-2 -48 -9 -119 -16 -158 -6 -38 -13 -139 -16 -222 -3 -119 -7 -153 -17 -153
-18 0 -32 39 -47 130 -15 90 -15 671 0 728 6 20 15 73 21 117 7 44 18 110 26
146 15 72 38 211 58 359 8 52 21 113 31 135 10 23 16 63 16 95 -1 34 11 95 29
159 17 57 30 118 30 135 0 37 22 122 40 155 15 29 46 141 55 201 3 25 15 79
26 120 10 41 23 129 28 195 8 93 15 133 35 178 14 31 29 76 32 100 3 23 16 58
28 77 12 19 26 42 30 50 4 8 13 26 21 40 22 38 18 56 -22 98 -192 197 -212
230 -224 369 -4 51 -11 98 -14 103 -9 15 -55 12 -55 -4 0 -11 -10 -11 -51 -4
-65 12 -156 56 -224 108 -109 84 -258 131 -420 132 -116 1 -147 -17 -196 -114
-34 -67 -37 -99 -9 -115 22 -14 48 -7 70 18 9 10 37 20 68 24 56 7 69 -4 27
-23 -14 -6 -26 -18 -26 -27 -4 -39 -19 -65 -40 -65 -12 0 -21 -9 -25 -27 -3
-16 -9 -37 -14 -48 -11 -27 -29 -119 -35 -180 -2 -27 -10 -83 -16 -123 -6 -40
-7 -81 -3 -90 4 -9 6 -21 5 -26 -1 -5 -4 -32 -7 -60 -3 -28 -8 -67 -11 -86
-11 -64 -13 -374 -4 -460 7 -65 6 -88 -3 -100 -23 -27 -25 -47 -10 -117 18
-85 18 -162 -2 -262 -7 -38 11 -163 29 -201 7 -14 10 -38 6 -55 -4 -16 -7 -55
-8 -86 0 -30 -6 -60 -12 -66 -8 -8 -7 -17 5 -34 9 -13 16 -34 16 -46 0 -13 5
-23 11 -23 5 0 7 -5 3 -11 -3 -6 -2 -14 4 -18 6 -4 9 -17 5 -29 -3 -12 -9 -19
-14 -16 -5 3 -9 -2 -9 -10 0 -9 -5 -16 -10 -16 -6 0 -10 -6 -9 -12 1 -7 -1
-21 -5 -30 -4 -9 -3 -25 2 -35 12 -22 15 -126 8 -278 -2 -60 -2 -114 2 -120 3
-5 7 -95 8 -200 1 -104 7 -212 13 -240 20 -87 21 -99 21 -157 0 -52 2 -58 21
-58 11 0 18 -3 16 -7 -3 -5 8 -8 24 -8 19 0 28 4 24 12 -2 7 0 13 5 13 6 0 10
-5 10 -11 0 -5 4 -7 10 -4 12 7 82 -63 75 -75 -8 -14 15 -23 28 -11 10 8 14 1
15 -27 2 -20 7 -38 12 -40 6 -2 10 -14 10 -26 0 -12 9 -41 20 -64 12 -24 20
-48 19 -55 -1 -7 1 -19 5 -29 4 -9 0 -30 -9 -48 -9 -17 -15 -39 -14 -48 3 -32
-1 -65 -7 -59 -12 11 -44 -40 -38 -60 4 -13 3 -14 -4 -5 -7 11 -10 11 -15 -1
-3 -8 -3 -23 -1 -34 3 -10 -3 -26 -13 -36 -168 -162 -190 -192 -224 -309 -7
-26 -28 -63 -46 -83 -18 -20 -33 -40 -33 -45 0 -16 -74 -60 -101 -60 -15 0
-32 7 -39 15 -18 22 -40 18 -40 -6 0 -12 15 -54 34 -93 41 -86 87 -213 116
-321 26 -94 48 -141 102 -211 49 -65 66 -77 156 -103 40 -12 105 -35 145 -52
98 -41 193 -70 231 -72 50 -1 216 14 274 24 49 10 54 9 72 -13 22 -27 88 -188
124 -303 66 -212 90 -346 116 -655 11 -129 25 -257 30 -283 6 -27 13 -79 16
-115 3 -37 22 -125 41 -197 19 -71 38 -157 42 -190 9 -73 31 -145 44 -145 5 0
16 -8 23 -17 10 -15 11 11 7 143 -4 116 -3 163 6 168 16 10 14 45 -4 62 -19
19 -5 59 21 59 11 0 23 10 29 23 20 45 34 26 47 -65 1 -7 10 -15 20 -19 22 -7
24 -24 3 -24 -8 0 -15 -4 -15 -10 0 -16 26 -12 41 7 8 9 14 30 14 46 0 18 6
32 15 35 8 3 12 1 8 -3 -4 -4 2 -23 13 -42 11 -20 18 -38 14 -41 -3 -3 -5 1
-5 8 0 7 -3 10 -7 6 -4 -4 -8 -15 -8 -23 0 -9 -6 -18 -14 -21 -10 -3 -12 0 -8
12 4 9 2 16 -4 16 -7 0 -9 -15 -5 -42 9 -62 9 -84 0 -173 -6 -69 -5 -79 7 -70
8 6 3 0 -11 -12 -14 -13 -19 -23 -12 -23 7 0 10 -5 7 -10 -4 -6 -10 -8 -15 -5
-14 9 -23 -15 -11 -29 7 -8 23 -16 36 -18 22 -5 24 -2 18 20 -5 23 -3 24 21
20 26 -5 35 5 16 17 -6 4 -8 10 -5 15 3 5 1 12 -5 15 -8 5 -8 11 0 20 6 7 10
17 9 21 -1 5 -1 19 0 32 1 19 7 22 41 22 38 0 54 -13 28 -23 -10 -4 -10 -6 0
-6 7 -1 12 -15 12 -35 0 -19 6 -37 13 -40 10 -5 10 -7 0 -12 -7 -3 -13 -12
-13 -20 0 -9 4 -13 9 -10 24 15 34 -106 16 -189 -6 -27 -5 -28 8 -12 19 23 27
21 27 -7 0 -17 9 -27 29 -36 20 -8 28 -17 24 -27 -3 -8 -12 -12 -19 -9 -8 3
-14 1 -14 -4 0 -6 -9 -10 -20 -10 -14 0 -20 -7 -20 -21 0 -11 5 -17 10 -14 6
3 14 -4 19 -17 l9 -23 7 27 c4 15 4 32 0 39 -5 7 -3 10 6 7 8 -3 15 -11 15
-19 1 -8 2 -20 3 -28 1 -10 4 -11 15 -2 11 9 16 5 25 -20 6 -18 11 -45 11 -60
0 -37 -31 -39 -65 -5 -14 14 -27 20 -30 15 -4 -5 -19 -9 -35 -9 -31 0 -30 -3
-15 118 3 27 1 33 -11 28 -9 -3 -18 -6 -20 -6 -2 0 -4 -8 -4 -17 -1 -17 -70
-60 -70 -44 0 4 -15 14 -32 22 -26 12 -44 13 -85 4 -72 -14 -77 -21 -57 -83
10 -29 20 -52 24 -52 4 0 5 -21 3 -46 -3 -26 1 -51 7 -59 7 -8 8 -20 4 -27 -5
-7 -9 -47 -10 -89 -2 -88 -10 -119 -30 -119 -29 0 -28 -30 6 -194 10 -50 36
-90 51 -80 5 3 9 25 9 50 0 49 18 66 47 43 19 -16 111 -37 165 -38 28 -1 41
-7 54 -26 28 -43 16 -58 -64 -78 -81 -19 -122 -48 -122 -86 0 -39 -11 -49 -55
-53 -36 -3 -40 -6 -43 -32 -7 -59 3 -72 64 -84 31 -7 80 -26 110 -43 49 -28
62 -31 139 -30 67 1 85 -2 85 -13 0 -21 -65 -71 -110 -85 -46 -13 -102 -74
-98 -104 2 -16 21 -28 78 -50 104 -40 164 -72 168 -88 2 -11 -15 -14 -76 -14
-68 0 -104 -8 -141 -32 -6 -4 23 -28 54 -43 39 -19 75 -50 75 -66 0 -7 -9 -16
-20 -19 -11 -3 -20 -10 -20 -15 0 -5 -21 -12 -46 -16 -47 -7 -64 -27 -61 -70
2 -13 -4 -18 -18 -17 -23 2 -47 -38 -39 -65 3 -9 -1 -6 -9 7 -9 15 -17 20 -21
12 -4 -6 -3 -11 2 -11 5 0 12 -8 14 -17 7 -27 81 -25 86 2 3 11 11 24 18 28 8
5 12 12 9 17 -7 11 21 21 40 14 23 -9 19 -44 -4 -44 -18 0 -19 -3 -9 -30 9
-27 7 -36 -17 -70 -15 -22 -31 -37 -36 -35 -4 3 -10 1 -14 -5 -4 -7 -14 -6
-28 2 -12 7 -26 13 -32 13 -18 1 -54 38 -48 49 3 6 0 6 -7 -1 -16 -15 -16 -57
0 -278 7 -88 18 -177 26 -197 7 -20 14 -66 16 -102 l2 -66 849 0 849 0 -6 123
c-4 67 -13 154 -21 192 -7 39 -19 120 -25 180 -9 75 -19 124 -35 155 -20 41
-23 64 -29 270 -6 173 -12 239 -26 285 -27 93 -34 174 -15 209 21 39 19 63 -9
111 l-25 41 12 163 c11 161 11 164 -11 202 -31 53 -28 71 18 124 46 54 52 93
20 154 -14 28 -20 62 -21 122 l-2 84 53 85 53 84 -7 93 c-5 67 -2 108 8 150
79 308 116 682 91 910 -6 52 -4 62 19 93 50 67 66 111 66 182 0 78 -15 154
-41 212 -26 56 -24 104 8 194 25 72 27 89 29 257 1 100 5 192 9 205 4 14 27
43 51 66 52 49 57 81 19 136 -24 35 -25 42 -19 125 4 48 11 94 17 101 5 6 27
12 49 12 33 0 41 -4 56 -31 32 -59 61 -86 132 -123 77 -41 85 -51 195 -236 37
-63 80 -133 95 -155 31 -46 72 -119 124 -225 21 -41 43 -84 49 -95 31 -58 201
-388 223 -435 15 -30 39 -73 54 -95 14 -22 55 -96 89 -165 139 -274 184 -356
207 -375 16 -14 21 -24 14 -31 -9 -9 76 -191 106 -225 8 -8 14 -23 14 -32 0
-9 5 -17 12 -17 6 0 9 -3 5 -6 -7 -7 28 -80 43 -89 5 -3 10 -15 10 -27 0 -11
8 -22 20 -25 20 -5 24 -20 20 -76 -1 -21 3 -27 19 -27 12 0 21 -6 21 -15 0 -8
-5 -15 -11 -15 -12 0 -6 -36 15 -85 56 -128 66 -154 66 -168 0 -9 5 -19 10
-22 6 -3 10 -14 10 -23 0 -9 9 -35 19 -57 11 -22 25 -54 31 -71 6 -16 21 -41
33 -55 13 -13 36 -44 53 -69 30 -44 41 -49 76 -35 14 6 24 -8 54 -72 31 -66
37 -88 37 -142 -1 -43 -6 -68 -15 -75 -8 -6 -12 -20 -10 -31 6 -29 70 -122 99
-145 14 -11 38 -39 53 -62 44 -69 102 -117 176 -147 62 -25 69 -31 72 -58 3
-30 -17 -69 -67 -135 -46 -59 -12 -117 104 -174 106 -53 124 -83 132 -222 3
-59 11 -118 18 -132 7 -14 16 -45 20 -70 8 -51 67 -164 132 -258 64 -90 133
-231 133 -270 0 -36 23 -88 50 -114 9 -9 23 -37 31 -62 l13 -46 889 0 890 0
-7 32 c-3 17 -13 44 -21 60 -8 15 -22 41 -30 57 -9 17 -25 82 -35 145 -11 64
-29 142 -41 173 -12 32 -25 78 -29 103 -11 59 -66 231 -95 295 -49 108 -89
275 -92 380 -3 136 -5 141 -64 231 -29 43 -58 99 -66 123 -7 25 -22 55 -33 66
-11 12 -25 37 -30 56 -10 33 -8 49 30 270 6 30 10 65 10 77 0 28 -50 67 -124
97 -62 25 -106 59 -106 82 0 8 12 30 26 48 19 25 24 40 18 57 -9 30 -62 108
-73 108 -5 0 -29 18 -54 41 -36 32 -50 53 -62 97 -21 74 -38 99 -78 116 -60
25 -72 49 -69 134 1 53 8 86 22 109 30 51 34 95 15 154 -33 99 -95 186 -155
220 -26 15 -44 35 -55 61 -21 53 -19 63 18 115 28 40 32 53 31 107 0 43 -7 74
-23 105 -13 24 -27 74 -32 110 -12 94 -28 166 -55 248 -13 39 -24 85 -24 102
0 17 -4 39 -9 49 -55 108 -64 136 -73 240 -11 120 -11 128 -2 192 5 37 -3 72
-39 185 -49 156 -66 216 -74 260 -4 27 0 33 39 54 24 14 94 58 156 99 123 80
142 104 142 181 0 34 8 49 45 91 25 28 45 52 45 54 0 2 7 42 15 89 20 114 25
563 8 662 -7 39 -14 122 -15 185 l-3 115 47 30 c57 36 64 53 48 111 -15 53
-11 59 75 117 33 22 74 55 90 71 17 17 71 60 120 96 94 67 222 164 313 237 29
24 62 43 74 43 11 0 39 -15 62 -33 79 -65 151 -107 180 -107 20 0 42 12 72 40
44 40 62 46 99 31 37 -15 212 73 288 144 52 49 30 91 -122 239 -33 33 -64 68
-67 79 -4 13 5 35 26 65 18 25 35 64 38 85 7 57 -18 205 -44 257 -24 49 -205
277 -337 425 l-37 42 -5 210 c-8 305 -19 438 -45 503 -12 30 -25 72 -30 95
-14 67 -86 258 -119 318 -18 31 -52 73 -77 95 -53 46 -166 105 -246 128 -89
26 -93 30 -68 87 12 26 25 47 31 47 14 0 41 68 32 83 -21 36 -115 134 -165
172 -78 60 -99 70 -208 93 -243 52 -314 54 -478 12 -155 -41 -170 -45 -290
-92 -57 -21 -108 -38 -114 -36 -5 2 -18 30 -29 62 -16 48 -18 64 -9 92 12 35
-1 104 -20 104 -30 0 -8 93 32 137 24 26 20 83 -8 114 -9 11 -13 19 -9 19 4 0
1 8 -7 18 -26 29 -35 74 -32 147 7 173 19 198 101 216 76 16 89 29 31 29 -26
0 -59 5 -73 10 -33 12 -111 75 -119 95 -3 8 8 54 24 102 17 48 30 99 30 113 0
14 10 58 22 98 21 71 21 73 2 87 -10 8 -25 15 -31 15 -17 0 -16 31 1 55 7 12
16 62 19 119 4 63 11 103 19 107 12 7 34 78 60 192 7 33 16 47 27 47 22 0 41
19 41 40 0 25 -33 50 -58 45 -12 -2 -22 0 -22 5 0 5 -27 9 -59 7 -51 -2 -63 2
-85 22 -19 18 -24 30 -20 50 6 26 -18 62 -29 44 -4 -7 3 -132 19 -339 4 -45 2
-89 -3 -98 -6 -10 0 -56 15 -134 14 -64 25 -126 25 -137 -1 -58 -25 -249 -33
-265 -6 -11 -6 -44 -1 -86 5 -38 7 -78 5 -89 -2 -11 -7 -60 -11 -108 -4 -60
-10 -90 -20 -94 -18 -7 -17 -33 2 -33 16 0 18 -12 15 -119 -2 -65 -16 -96 -42
-86 -19 8 -75 94 -91 140 -8 22 -17 60 -21 85 -5 36 -14 50 -41 70 -26 19 -35
33 -35 55 -1 47 -41 87 -53 53 -2 -7 -6 2 -9 20 -4 31 -4 32 17 18 21 -14 23
-12 43 25 22 40 20 69 -3 69 -8 0 -17 -5 -21 -11 -5 -8 -10 -6 -16 5 -5 9 -14
13 -20 10 -7 -5 -9 -2 -5 8 4 11 -1 18 -14 21 -13 4 -19 12 -17 24 2 10 -2 17
-9 16 -8 -2 -13 7 -13 20 0 30 -9 41 -48 63 -19 11 -34 24 -34 29 0 6 -4 16
-10 22 -14 17 50 93 72 87 12 -4 12 -3 3 7 -19 19 -100 16 -168 -4 -51 -16
-60 -22 -61 -43 -2 -32 -9 -38 -28 -27 -18 10 -44 51 -83 133 -14 30 -37 66
-50 80 -23 23 -65 89 -95 150 -7 14 -18 32 -25 40 -6 8 -31 39 -55 69 -24 29
-47 61 -53 70 -60 98 -251 317 -532 610 -56 58 -129 140 -163 181 -34 41 -108
122 -165 180 -56 58 -116 124 -132 147 -37 52 -114 141 -173 201 -25 25 -67
74 -95 108 -27 35 -81 100 -120 145 -38 45 -97 114 -131 153 -33 39 -80 100
-104 136 -24 36 -72 96 -107 133 -36 38 -81 94 -101 125 -46 73 -175 242 -272
357 -42 50 -97 117 -123 150 -26 33 -72 82 -102 108 -31 27 -66 70 -80 97 -27
54 -40 60 -137 60 -97 0 -104 9 -151 200 -15 62 -13 61 -122 50z m-1217 -8414
c100 -52 143 -61 277 -61 120 1 120 1 208 43 49 23 93 42 98 42 5 0 9 -11 9
-25 0 -21 -12 -31 -79 -65 -44 -22 -82 -44 -86 -50 -3 -5 -21 -10 -38 -10 -18
0 -44 -6 -59 -14 -32 -17 -117 -30 -178 -27 -121 5 -192 37 -225 102 -17 32
-20 99 -5 99 6 0 41 -16 78 -34z m-2 -216 c6 -6 42 -20 80 -32 61 -18 96 -21
289 -23 277 -2 282 -2 267 -17 -12 -12 -260 -26 -473 -27 -103 -1 -121 2 -166
24 -46 22 -83 56 -83 77 0 12 74 10 86 -2z m5204 -245 c0 -8 -3 -15 -7 -15
-11 0 -10 -142 0 -158 5 -7 5 -18 -1 -25 -13 -18 -22 -57 -11 -57 4 0 6 -7 3
-15 -4 -8 -1 -22 6 -30 7 -8 10 -21 7 -29 -3 -8 -2 -16 3 -18 18 -6 18 -73 0
-113 -42 -95 -42 -104 -4 -223 9 -27 11 -49 5 -60 -5 -9 -12 -41 -16 -70 -4
-29 -18 -72 -31 -95 -13 -23 -27 -50 -30 -59 -4 -10 -10 -18 -15 -18 -5 0 -9
-6 -9 -13 0 -7 -10 -23 -22 -37 -13 -14 -30 -38 -38 -54 l-15 -29 -7 47 c-7
54 0 107 31 220 18 65 24 123 31 309 5 129 13 234 18 239 7 7 7 16 -1 28 -8
14 -8 32 1 70 7 28 12 76 12 106 0 30 5 54 10 54 6 0 10 8 10 18 0 10 5 23 12
30 17 17 58 15 58 -3z m-5062 -7 c-2 -9 13 -13 50 -14 28 -1 52 3 52 7 0 5 5
9 10 9 6 0 9 -3 8 -7 -2 -5 7 -25 20 -46 18 -31 26 -37 45 -33 12 3 16 3 10 0
-7 -3 -13 -10 -13 -15 0 -6 4 -8 8 -5 18 11 131 16 137 6 4 -6 11 -8 16 -5 5
4 9 -1 9 -9 0 -16 -48 -29 -92 -27 -13 1 -48 3 -78 5 -90 4 -95 5 -123 28 -19
15 -39 22 -61 20 -37 -4 -54 11 -36 33 7 9 8 15 0 20 -21 13 -4 34 38 44 1 1
1 -5 0 -11z m-744 -889 c16 -8 27 -24 34 -51 13 -51 10 -57 -39 -92 -35 -25
-43 -27 -55 -14 -17 17 -40 129 -31 152 7 19 54 21 91 5z m849 -337 c9 -8 17
-21 17 -29 0 -18 7 -17 37 7 14 11 34 20 44 20 24 0 34 17 12 23 -10 2 -2 4
17 3 34 0 35 -1 35 -38 1 -23 -2 -33 -7 -25 -6 9 -11 8 -19 -5 -5 -10 -17 -18
-24 -18 -8 0 -15 -4 -15 -8 0 -4 -22 -16 -49 -26 -41 -14 -54 -15 -73 -5 -42
22 -58 46 -58 89 l0 42 33 -7 c17 -4 40 -14 50 -23z m4048 2 c5 -3 9 -13 9
-22 0 -32 -29 -59 -76 -71 -60 -15 -488 -25 -513 -11 -10 5 -34 10 -53 12 -34
2 -43 16 -25 35 13 13 111 26 217 29 108 3 235 17 305 33 39 9 118 7 136 -5z
m4 -385 c27 -16 34 -26 29 -41 -3 -10 -1 -25 5 -32 9 -10 1 -17 -36 -31 -27
-10 -58 -25 -71 -33 -17 -11 -38 -13 -90 -8 -263 28 -502 70 -502 90 0 2 5 17
11 34 l11 31 111 -4 c309 -13 347 -14 352 -4 4 5 31 7 65 3 37 -3 60 -2 65 5
8 14 8 14 50 -10z m-388 -446 c7 -3 13 -15 13 -27 1 -19 2 -18 16 7 15 28 41
34 73 17 13 -6 31 -4 60 7 29 11 45 13 52 6 6 -6 42 -8 90 -6 87 6 120 -6 141
-52 17 -37 -3 -52 -78 -60 -61 -7 -65 -6 -85 19 -20 26 -69 37 -69 15 0 -7
-10 -9 -25 -5 -20 5 -25 3 -26 -14 -1 -11 -2 -26 -3 -32 -1 -7 4 -13 11 -13 6
0 15 -3 19 -7 4 -5 18 -8 30 -8 13 0 26 -4 29 -10 3 -5 17 -10 31 -10 13 0 32
-4 42 -10 9 -5 66 -24 125 -42 60 -18 117 -41 127 -50 11 -10 24 -18 30 -18 5
0 10 -4 10 -9 0 -8 71 -31 117 -37 12 -1 29 -7 38 -12 61 -34 -134 -45 -305
-17 -95 16 -182 29 -295 45 -33 5 -82 14 -110 20 -27 6 -69 13 -93 15 -63 7
-202 115 -148 115 9 0 16 6 16 14 0 20 52 26 160 17 52 -4 97 -3 98 1 2 4 11
8 20 9 14 0 13 2 -3 9 -19 8 -19 9 3 9 33 1 19 18 -22 25 -19 4 -39 13 -46 21
-9 10 -32 15 -75 15 -71 0 -114 23 -102 55 6 15 15 16 64 10 31 -4 62 -9 70
-12z m-257 -364 c3 -5 28 -10 55 -13 28 -3 64 -9 80 -14 17 -5 76 -18 133 -28
56 -10 102 -22 102 -26 0 -5 10 -8 23 -8 21 0 240 -44 282 -56 11 -4 58 -11
105 -16 47 -5 100 -16 119 -24 18 -8 44 -14 56 -14 13 0 37 -11 53 -25 17 -15
42 -25 60 -25 50 0 182 -70 182 -97 0 -12 -32 -30 -79 -43 -48 -13 -71 -2
-102 49 -13 21 -30 33 -61 41 -24 6 -54 16 -68 22 -14 6 -28 11 -32 10 -4 -1
-90 -2 -190 -2 -194 -1 -258 6 -350 39 -32 12 -66 21 -76 21 -31 0 -223 110
-251 144 -7 9 -24 16 -37 16 -51 0 -95 34 -79 61 7 10 67 0 75 -12z m901 -426
c11 -13 11 -17 2 -20 -7 -3 -13 -11 -13 -19 0 -11 16 -14 65 -14 60 0 66 -2
77 -25 6 -14 17 -26 25 -26 7 -1 18 -3 23 -4 6 -1 25 -3 43 -4 22 -1 28 -4 18
-10 -9 -6 -12 -20 -9 -39 4 -25 1 -32 -16 -34 -18 -3 -18 -4 -4 -19 14 -13 36
-16 130 -13 62 2 140 9 173 16 33 7 100 13 150 13 78 0 90 -2 93 -18 3 -12 -7
-22 -35 -32 -21 -8 -55 -24 -76 -35 -61 -34 -209 -60 -378 -67 -173 -7 -218
-1 -394 48 -103 30 -131 39 -180 60 -11 5 -56 21 -99 34 -83 26 -165 63 -228
102 -21 13 -44 23 -53 23 -8 0 -15 4 -15 9 0 5 16 9 35 8 19 -1 35 -4 35 -8 0
-4 9 -5 20 -2 11 3 27 0 36 -8 8 -7 36 -20 62 -29 26 -10 73 -27 104 -38 31
-11 74 -23 94 -27 21 -3 42 -9 48 -13 6 -5 27 -9 46 -10 19 -1 30 1 24 5 -6 5
-13 16 -17 25 -3 9 -16 18 -29 20 -13 2 -22 8 -21 15 1 6 -15 13 -35 17 -20 3
-50 17 -67 30 -71 58 -94 80 -89 88 3 4 46 6 97 4 51 -2 124 -1 162 4 127 13
181 12 196 -7z m-328 -317 c18 -7 55 -23 82 -34 28 -11 97 -43 155 -70 145
-69 312 -117 505 -147 11 -2 65 -12 120 -23 136 -27 287 -43 495 -50 184 -7
220 -19 115 -37 -65 -12 -90 -11 -360 5 -204 12 -208 13 -365 40 -253 44 -291
54 -458 111 -46 16 -91 29 -101 29 -28 0 -131 57 -193 107 -80 64 -77 105 5
69z m294 -419 c7 2 23 -3 35 -11 12 -9 28 -16 36 -16 7 0 29 -7 50 -16 20 -9
55 -17 76 -19 29 -3 48 -12 68 -34 20 -21 38 -31 59 -31 16 0 38 -9 49 -20 11
-11 31 -20 44 -20 14 0 28 -4 31 -10 8 -13 98 -13 111 -1 5 6 52 11 104 12 73
2 103 -2 128 -15 17 -9 32 -21 32 -27 0 -22 -47 -48 -99 -55 -39 -5 -55 -11
-58 -24 -6 -21 -68 -32 -96 -18 -11 6 -58 7 -113 3 l-94 -7 0 25 c0 16 -10 34
-26 46 -17 13 -26 30 -26 51 -1 18 -8 34 -17 38 -24 11 -100 7 -114 -7 -13
-13 -34 -15 -39 -3 -6 14 -67 52 -85 53 -11 0 -13 3 -5 6 20 8 -6 33 -34 33
-17 0 -28 8 -34 25 -5 14 -14 25 -19 25 -5 0 -11 11 -14 26 -4 25 -4 25 17 6
11 -11 27 -17 33 -15z m169 -408 c12 -11 25 -19 30 -17 5 1 23 -5 40 -15 37
-19 220 -33 385 -28 109 3 160 -9 195 -44 9 -8 20 -13 25 -9 5 3 22 -4 38 -15
16 -12 35 -21 43 -21 8 0 18 -4 23 -9 6 -5 46 -22 90 -37 77 -28 87 -29 259
-29 127 0 180 -3 183 -12 4 -12 -4 -15 -156 -43 -103 -19 -289 -12 -403 14
-95 23 -235 40 -283 36 -44 -5 -72 -3 -122 8 -29 6 -76 14 -105 17 -29 4 -55
10 -58 15 -3 5 -31 16 -61 24 -31 8 -78 21 -105 30 -27 9 -75 21 -106 27 -31
5 -73 21 -93 35 -20 13 -40 22 -45 19 -15 -9 -80 36 -80 55 0 10 4 20 10 22 5
2 70 2 142 0 116 -3 136 -6 154 -23z m-3608 -424 c14 -31 15 -55 3 -55 -5 0
-14 -13 -20 -28 -13 -31 -52 -54 -126 -73 -27 -7 -69 -23 -93 -36 -60 -32
-141 -32 -185 1 -18 13 -69 41 -114 62 -95 45 -106 63 -59 99 30 22 42 25 137
26 57 0 144 -2 194 -4 50 -3 100 0 115 5 29 12 85 25 116 27 13 1 25 -8 32
-24z m3710 -259 c34 -13 51 -14 89 -5 33 7 68 7 113 0 36 -6 104 -13 152 -16
80 -6 202 -31 168 -35 -8 -1 -24 -4 -35 -7 -25 -7 -41 -7 -200 2 -125 7 -132
6 -170 -16 -30 -18 -52 -23 -94 -21 -48 2 -62 8 -111 46 -30 24 -54 48 -53 52
3 13 44 23 73 19 14 -2 44 -10 68 -19z m221 -162 c144 -42 251 -84 310 -121
19 -12 39 -19 45 -16 6 3 4 -1 -4 -10 -25 -27 -190 1 -280 48 -16 8 -42 15
-57 15 -16 0 -36 9 -46 20 -9 11 -24 20 -32 20 -10 0 -15 10 -15 30 0 35 4 36
79 14z"/>
<path d="M22005 13299 c-2 -8 -7 -61 -9 -119 -3 -58 -6 -118 -7 -135 -3 -55 4
-104 16 -109 22 -8 35 10 37 48 1 20 5 39 9 41 4 3 17 26 29 51 24 48 27 98
13 174 -6 35 -12 45 -28 46 -11 1 -28 5 -37 9 -11 4 -20 2 -23 -6z"/>
<path d="M17324 13123 c7 -25 8 -49 6 -85 0 -7 1 -49 4 -92 4 -57 10 -82 21
-88 16 -10 65 -106 65 -130 0 -8 -11 -20 -25 -26 -14 -6 -25 -19 -25 -27 0
-23 -49 -63 -92 -75 -28 -8 -38 -16 -38 -30 0 -11 6 -21 13 -22 6 0 17 -2 22
-3 6 -2 15 -3 20 -4 19 -2 12 -133 -8 -163 -15 -21 -17 -37 -12 -68 8 -45 11
-45 87 -13 44 19 51 44 36 131 -13 72 -4 122 37 203 13 26 26 76 30 111 6 55
4 66 -14 89 -20 25 -24 56 -21 164 0 30 -8 53 -37 95 -44 63 -80 81 -69 33z"/>
<path d="M17332 12067 c-11 -12 -39 -53 -63 -92 -45 -72 -57 -131 -31 -157 17
-17 36 5 57 69 12 38 24 56 43 65 15 8 27 21 27 30 0 9 4 20 8 24 13 13 8 72
-7 77 -8 3 -23 -4 -34 -16z"/>
<path d="M17165 11691 c-16 -3 -30 -11 -30 -16 1 -32 19 -91 30 -100 8 -5 16
-27 19 -48 12 -78 51 -128 164 -206 21 -15 41 -21 55 -17 36 9 87 65 87 95 0
55 -69 129 -110 118 -22 -6 -109 18 -125 34 -5 5 -12 40 -15 77 -5 73 -11 78
-75 63z"/>
<path d="M17328 11162 c-21 -36 -76 -92 -110 -115 -16 -9 -48 -20 -73 -24 -55
-7 -47 -24 20 -43 25 -7 49 -18 53 -24 3 -6 7 -53 8 -104 0 -52 5 -97 11 -100
5 -4 13 -16 17 -27 7 -17 10 -14 21 20 7 22 23 90 35 150 12 61 26 130 31 155
26 134 22 172 -13 112z"/>
<path d="M33502 4088 c2 -6 12 -12 22 -14 25 -4 46 -24 46 -44 0 -29 11 -50
27 -50 8 0 11 -4 8 -10 -9 -15 106 -16 162 -1 33 9 42 36 16 45 -10 3 -33 15
-51 26 -22 13 -60 23 -107 27 -48 4 -76 11 -79 19 -6 17 -49 19 -44 2z"/>
</g>
</svg>
